<?xml version="1.0" encoding="UTF-8" standalone="no"?>
<svg
   width="405.93219"
   height="162.71187"
   viewBox="0 0 64.949152 26.033899"
   aria-hidden="true"
   role="img"
   class="iconify iconify--noto"
   preserveAspectRatio="xMidYMid"
   version="1.1"
   id="svg88"
   sodipodi:docname="ScrollEndMiddle.svg"
   inkscape:version="1.2.2 (732a01da63, 2022-12-09)"
   xmlns:inkscape="http://www.inkscape.org/namespaces/inkscape"
   xmlns:sodipodi="http://sodipodi.sourceforge.net/DTD/sodipodi-0.dtd"
   xmlns="http://www.w3.org/2000/svg"
   xmlns:svg="http://www.w3.org/2000/svg">
  <defs
     id="defs92" />
  <sodipodi:namedview
     id="namedview90"
     pagecolor="#ffffff"
     bordercolor="#000000"
     borderopacity="0.25"
     inkscape:showpageshadow="2"
     inkscape:pageopacity="0.0"
     inkscape:pagecheckerboard="0"
     inkscape:deskcolor="#d1d1d1"
     showgrid="false"
     inkscape:zoom="1.18"
     inkscape:cx="88.559322"
     inkscape:cy="157.62712"
     inkscape:window-width="1680"
     inkscape:window-height="979"
     inkscape:window-x="-8"
     inkscape:window-y="-8"
     inkscape:window-maximized="1"
     inkscape:current-layer="svg88" />
  <g
     id="g515"
     transform="translate(-46.474406,-43.15151)">
    <ellipse
       cx="112.18982"
       cy="55.801514"
       rx="9.4099998"
       ry="12.65"
       fill="#f2bd72"
       id="ellipse50-4" />
    <path
       d="m 112.29243,43.304498 h -5.18001 c -7.376845,0.184773 -59.410734,0.03829 -64.681617,0.0044 -5.758611,-0.04904 -11.786755,4.023825 -11.793103,12.015384 -0.01178,14.822647 10.492792,13.078476 10.492792,13.078476 l 70.681938,0.191758 c 0.07,1.9e-4 0.14,-0.01 0.21,-0.02 0.09,0 0.18,0.02 0.27,0.02 5.2,0 9.41,-5.66 9.41,-12.65 0,-6.969997 -4.21,-12.639996 -9.41,-12.639997 z"
       fill="#ffd8a1"
       id="path54-4"
       style="display:inline"
       sodipodi:nodetypes="sccscscssss" />
    <path
       d="m 35.84983,43.15151 v 6.17 h 84.41 c -1.64,-3.69 -4.64,-6.17 -8.07,-6.17 z"
       fill="#fcebcd"
       id="path60-8" />
    <ellipse
       cx="36.32983"
       cy="55.801514"
       rx="9.4099998"
       ry="12.65"
       fill="#f2bd72"
       id="ellipse62-1" />
    <path
       d="m 43.30983,55.14151 c 0,5.33 -3.34,8.35 -6.92,9.33 -4.61,1.26 -6.53,0.16 -6.53,0.16 v -18.98 c 0,0 3.25,-0.82 6.72,0.16 3.54,0.99 6.73,4 6.73,9.33 z"
       fill="#784d30"
       id="path64-1" />
    <ellipse
       cx="31.079828"
       cy="55.14151"
       rx="6.7199998"
       ry="9.6499996"
       fill="#784d30"
       id="ellipse66-2" />
    <ellipse
       cx="31.079828"
       cy="55.151512"
       rx="6.7199998"
       ry="9.6499996"
       fill="#784d30"
       id="ellipse68-8" />
    <ellipse
       cx="22.459829"
       cy="55.151512"
       rx="4.46"
       ry="4.5"
       fill="#ba793e"
       id="ellipse70-0" />
    <path
       d="m 30.61983,52.41151 c 1.27,0.39 2.82,3.08 0.18,5.66 -0.67,0.65 0.02,2.09 0.48,3.3 0.58,1.54 1,2.37 2.34,1.45 1.8,-1.22 3.51,-4.71 3.51,-7.67 0,-4.79 -2.71,-8.68 -6.05,-8.68 -1.72,0 -3.06,0.55 -4.19,2.88 -0.5,1.04 -0.55,2.37 1.04,2.53 0,0.01 1.78,0.26 2.69,0.53 z"
       fill="#ba793e"
       id="path72-6" />
  </g>
</svg>
